<?xml version="1.0" encoding="UTF-8" standalone="no"?>
<!DOCTYPE svg PUBLIC "-//W3C//DTD SVG 1.1//EN" "http://www.w3.org/Graphics/SVG/1.1/DTD/svg11.dtd">
<svg width="100%" height="100%" viewBox="0 0 709 709" version="1.1" xmlns="http://www.w3.org/2000/svg" xmlns:xlink="http://www.w3.org/1999/xlink" xml:space="preserve" xmlns:serif="http://www.serif.com/" style="fill-rule:evenodd;clip-rule:evenodd;stroke-linejoin:round;stroke-miterlimit:2;">
    <g transform="matrix(1,0,0,1,-92.381586,-122.533204)">
        <path d="M372.18,760.633C353.984,764.993 333.904,766.728 300.299,757.171C289.656,754.144 235.896,743.463 202.547,704.46C199.902,701.368 187.306,686.636 180.968,658.4C175.314,633.207 179.767,606.912 180.514,602.503C191.179,558.676 203.119,542.635 226.234,506.358C230.561,498.285 227.614,497.756 223.508,466.499C221.566,451.717 223.247,449.593 219.572,449.612C212.741,456.005 208.061,459.837 209.577,455.516C211.864,448.995 220.674,410.652 225.809,394.589C227.273,390.01 225.86,390.062 225.505,390.116C223.262,390.459 209.248,399.099 211.162,394.456C213.322,389.215 252.719,311.756 254.583,305.508C253.064,299.842 224.412,269.712 224.396,264.503C224.388,261.868 224.546,260.685 224.424,234.5C224.384,225.949 223.39,220.941 225.599,218.586C227.263,216.812 227.344,216.915 246.522,196.52C253.084,189.541 251.956,186.547 261.499,186.654C297.299,187.057 298.07,185.586 303.09,189.956C328.907,212.435 337.627,222.882 341.413,224.028C362.26,213.202 361.399,209.239 374.514,210.331C431.996,215.121 431.947,219.307 466.488,215.399C483.782,213.443 525.772,209.438 527.367,209.984C532.686,211.807 547.175,222.409 553.38,224.013C558.154,221.33 591.279,186.983 595.51,186.831C598.707,186.717 598.658,187 635.5,186.673C640.043,186.633 639.26,189.32 667.18,217.803C669.875,220.553 669.196,222.681 669.059,238.495C668.823,265.841 669.641,266.184 668.038,268.163C648.911,291.777 640.122,302.468 639.313,305.519C643.523,319.199 684.958,394.556 683.052,396.066C681.584,397.229 664.493,385.189 666.822,391.418C676.006,415.978 679.028,437.232 684.59,455.485C686.053,460.288 681.773,455.892 674.463,449.564C670.504,449.633 672.248,451.607 671.787,455.543C671.496,458.026 671.249,460.134 667.608,486.513C665.822,499.445 664.078,499.82 667.7,506.394C707.925,567.465 711.735,597.793 712.191,599.583C735.343,723.504 621.888,750.419 589.556,757.726C584.419,758.887 579.739,759.869 575.456,760.69C544.524,766.617 534.276,764.174 521.82,760.604C519.77,762.936 515.282,768.834 505.424,776.398C478.689,796.911 412.536,787.401 400.683,783.035C387.86,778.31 374.168,763.265 372.18,760.633Z" style="fill:rgb(197,140,63);"/>
    </g>
    <g transform="matrix(1,0,0,1,-92.381586,-122.533204)">
        <path d="M419.954,474.234C412.623,462.28 412.719,459.845 412.393,459.357C415.334,456.357 417.319,457.286 420.497,457.303C477.056,457.595 478.037,455.609 481.554,459.426C476.832,463.712 475.064,475.622 471.498,475.556C423.014,474.669 421.821,477.278 419.954,474.234Z" style="fill:rgb(197,140,63);"/>
    </g>
    <g transform="matrix(1,0,0,1,-92.381586,-122.533204)">
        <path d="M667.7,506.394C707.925,567.465 711.735,597.793 712.191,599.583L711.283,600.5C694.909,702.602 599.383,736.537 531.395,742.543C533.519,736.852 513.925,729.961 494.707,736.866C494.13,737.276 493.472,737.561 492.895,737.97C492.846,738.006 492.798,738.041 492.751,738.077C490.066,733.098 489.827,731.103 488.502,722.5C488.433,722.052 488.385,721.595 488.354,721.132C488.579,721.295 488.825,721.457 489.093,721.62C489.362,721.783 489.654,721.896 489.923,722.059C517.799,732.111 536.239,717.94 519.854,712.536C510.538,709.464 494.436,711.631 488.655,715.475C488.883,713.929 489.154,712.768 489.234,712.425C489.899,709.578 494.11,701.507 494.591,700.586C494.926,700.905 495.335,701.225 495.823,701.544C496.073,701.708 496.345,701.821 496.596,701.984C522.524,711.98 539.402,697.21 524.17,691.853C518.023,689.692 508.748,690.281 501.986,692.24C502.991,691.483 504.101,690.76 505.318,690.115C521.738,678.523 532.047,681.493 537.297,670.613C538.227,670.139 538.493,670.697 539.494,669.493C553.813,652.266 555.724,654.463 581.854,635.971C595.573,626.261 594.848,625.405 597.743,620.61C598.645,619.117 599.53,617.65 619.512,619.32C629.258,620.135 637.245,622.255 641.563,622.726C641.232,620.302 640.76,620.437 638.378,619.801C608.344,611.788 606.352,613.428 605.293,608.546C600.032,584.3 626.289,544.269 625.908,555.422C625.441,569.086 625.073,569.002 624.767,572.482C624.521,575.288 627.846,573.955 648.906,546.833C669.986,519.685 666.753,509.642 666.791,507.5L667.7,506.394Z" style="fill:rgb(197,140,63);"/>
    </g>
    <g transform="matrix(1,0,0,1,-92.381586,-122.533204)">
        <path d="M219.572,449.612C212.741,456.005 208.061,459.837 209.577,455.516C211.864,448.995 220.674,410.652 225.809,394.589C227.273,390.01 225.86,390.062 225.505,390.116C223.262,390.459 209.248,399.099 211.162,394.456C213.322,389.215 252.719,311.756 254.583,305.508C253.064,299.842 224.412,269.712 224.396,264.503C224.388,261.868 224.546,260.685 224.424,234.5C224.384,225.949 223.39,220.941 225.599,218.586C227.263,216.812 227.344,216.915 246.522,196.52C253.084,189.541 251.956,186.547 261.499,186.654C297.299,187.057 298.07,185.586 303.09,189.956C328.907,212.435 337.627,222.882 341.413,224.028C362.26,213.202 361.399,209.239 374.514,210.331C431.996,215.121 431.947,219.307 466.488,215.399C483.782,213.443 525.772,209.438 527.367,209.984C532.686,211.807 547.175,222.409 553.38,224.013C558.154,221.33 591.279,186.983 595.51,186.831C598.707,186.717 598.658,187 635.5,186.673C640.043,186.633 639.26,189.32 667.18,217.803C669.875,220.553 669.196,222.681 669.059,238.495C668.823,265.841 669.641,266.184 668.038,268.163C648.911,291.777 640.122,302.468 639.313,305.519C643.523,319.199 684.958,394.556 683.052,396.066C681.584,397.229 664.493,385.189 666.822,391.418C676.006,415.978 679.028,437.232 684.59,455.485C686.053,460.288 681.773,455.892 674.463,449.564C663.721,439.945 648.77,420.319 647.314,423.363C646.267,425.552 641.145,481.492 638.257,484.182C634.425,487.75 633.692,486.674 584.218,521.11C577.997,525.44 577.761,528.944 571.324,524.782C550.199,511.127 548.22,512.039 548.162,507.516C547.878,485.626 549.273,484.545 545.219,481.925C526.488,469.819 524.413,470.515 524.333,464.505C524.05,443.187 523.516,443.035 524.619,441.569C527.363,437.92 547.769,429.948 547.889,425.538C548.419,406.023 545.793,404.073 552.715,399.883C560.604,395.108 563.68,393.868 570.686,388.888C572.053,387.387 573.075,386.267 571.291,363.519C571.092,360.985 571.002,359.837 544.594,346.283C543.052,345.492 510.263,348.701 508.745,349.817C507.97,350.388 507.176,350.972 499.841,357.901C490.724,366.513 490.514,366.209 482.315,375.619C468.843,372.5 468.907,372.609 455.436,369.791C446.351,367.891 446.046,367.41 411.634,375.569C405.653,368.562 401.335,364.785 391.951,356.019C386.728,351.14 385.757,349.204 381.461,348.819C351.839,346.165 351.56,344.988 347.749,346.983C323.395,359.727 323.168,360.214 322.876,362.543C320.003,385.469 321.839,387.399 323.294,388.928C333.119,395.193 333.245,394.826 343.222,400.937C347.736,403.702 346.016,408.3 346.149,425.511C346.185,430.206 367.892,438.354 369.396,441.563C370.247,443.38 369.857,465.529 369.642,467.529C369.276,470.941 351.016,479.96 347.607,482.662C343.505,485.913 348.102,509.386 344.517,511.524C322.097,524.894 322.551,525.517 320.573,526.619C318.031,528.034 316.998,525.946 271.235,494.884C256.211,484.687 254.656,485.227 253.786,478.456C246.978,425.469 247.884,420.642 244.6,423.64C241.589,426.389 221.557,447.518 219.572,449.612ZM575.803,243.316C574.377,237.604 575.848,233.05 575.99,232.852C576.628,231.959 598.001,212.123 599.699,210.796C601.2,209.623 601.38,209.861 623.5,209.966C631.448,210.004 630.973,211.69 636.315,217.663C647.51,230.178 648.315,230.005 648.386,234.498C648.792,260.139 648.517,260.5 647.17,262.269C627.271,288.393 626.399,287.812 624.786,288.052C620.818,284.528 587.242,254.713 575.803,243.316ZM318.203,242.424C318.203,242.424 269.492,287.417 268.398,288.202C268.019,288.03 267.019,288.942 247.068,262.843C244.203,259.096 245.094,258.651 245.098,234.5C245.099,230.405 245.594,230.318 261.611,212.602C264.134,209.811 264.622,209.977 289.496,210.136C296.044,210.178 295.648,213.472 308.123,223.961C312.182,227.373 312.026,227.441 315.799,231.24C320.081,235.552 318.203,242.424 318.203,242.424Z" style="fill:rgb(197,140,63);"/>
    </g>
    <g transform="matrix(1,0,0,1,-92.381586,-122.533204)">
        <path d="M180.514,602.503C191.179,558.676 203.119,542.635 226.234,506.358L226.961,507.5C228.613,534.894 254.85,558.289 267.312,572.91C270.291,576.405 268.386,569.111 267.698,555.521C267.043,542.603 296.224,589.656 288.418,609.459C286.865,613.399 254.241,619.649 253.914,620.895C253.876,621.04 253.957,621.027 254.488,622.68C257.564,622.058 278.151,617.894 293.5,618.62C297.111,618.79 295.986,623.471 302.846,629.095C310.006,634.963 336.786,653.096 339.779,655.123C350.965,662.697 350.981,664.53 357.401,672.172C363.781,681.161 378.277,679.696 387.72,689.132C388.264,689.548 388.8,689.981 389.326,690.423C382.496,688.244 372.57,687.514 366.116,689.812C350.905,695.227 367.84,709.932 393.729,699.837C393.979,699.672 394.25,699.558 394.5,699.393C395.454,698.765 396.103,698.134 396.487,697.51C397.567,698.736 398.204,699.536 398.204,699.536C398.204,699.536 400.291,702.958 402.231,706.655C403.444,708.966 404.329,712.246 404.74,715.99C399.684,711.831 382.566,709.33 372.843,712.536C356.458,717.94 374.897,732.111 402.774,722.059C403.042,721.896 403.335,721.783 403.603,721.62C404.163,721.281 404.625,720.942 404.996,720.604C405.018,726.45 403.924,732.853 401.272,738.279C401.166,738.181 401.048,738.085 400.918,737.991C400.346,737.575 399.918,737.163 399.119,736.866C379.725,729.646 359.782,736.589 362.463,742.352C343.121,741.008 284.674,734.602 239.723,699.222C222.939,686.012 190.418,657.548 181.905,603.5L180.514,602.503Z" style="fill:rgb(197,140,63);"/>
    </g>
    <g transform="matrix(1,0,0,1,-92.381586,-122.533204)">
        <path d="M589.556,757.726C584.419,758.887 579.739,759.869 575.456,760.69C544.524,766.617 534.276,764.174 521.82,760.604C512.718,756.775 512.778,759.088 499.88,748.185L496.135,743.792C502.347,746.773 514.031,748.907 523.311,746.874C528.263,745.79 530.77,744.218 531.395,742.543C599.383,736.537 694.909,702.602 711.283,600.5L712.191,599.583C735.343,723.504 621.888,750.419 589.556,757.726Z" style="fill:rgb(128,63,28);"/>
    </g>
    <g transform="matrix(1,0,0,1,-92.381586,-122.533204)">
        <path d="M202.547,704.46C199.902,701.368 187.306,686.636 180.968,658.4C175.314,633.207 179.767,606.912 180.514,602.503L181.905,603.5C190.418,657.548 222.939,686.012 239.723,699.222C284.674,734.602 343.121,741.008 362.463,742.352C363.206,743.95 365.688,745.457 370.403,746.546C379.745,748.705 391.586,746.646 397.786,743.693C397.499,744.223 393.249,751.516 372.18,760.633C353.984,764.993 333.904,766.728 300.299,757.171C289.656,754.144 235.896,743.463 202.547,704.46Z" style="fill:rgb(128,63,28);"/>
    </g>
    <g transform="matrix(1,0,0,1,-92.381586,-122.533204)">
        <path d="M226.234,506.358C230.561,498.285 227.614,497.756 223.508,466.499C221.566,451.717 223.247,449.593 219.572,449.612C221.557,447.518 241.589,426.389 244.6,423.64C247.884,420.642 246.978,425.469 253.786,478.456C254.656,485.227 256.211,484.687 271.235,494.884C316.998,525.946 318.031,528.034 320.573,526.619C322.551,525.517 322.097,524.894 344.517,511.524C348.102,509.386 343.505,485.913 347.607,482.662C351.016,479.96 369.276,470.941 369.642,467.529C369.857,465.529 370.247,443.38 369.396,441.563C367.892,438.354 346.185,430.206 346.149,425.511C346.016,408.3 347.736,403.702 343.222,400.937C333.245,394.826 333.119,395.193 323.294,388.928C321.839,387.399 320.003,385.469 322.876,362.543C323.168,360.214 323.395,359.727 347.749,346.983C351.56,344.988 351.839,346.165 381.461,348.819C385.757,349.204 386.728,351.14 391.951,356.019C401.335,364.785 405.653,368.562 411.634,375.569L410.371,378.457C407.093,386.301 398.987,405.698 374.787,478.594C367.815,499.593 365.795,499.466 367.013,521.581C368.835,531.896 378.719,546.798 391.759,559.229C396.857,564.088 414.05,555.155 438.413,548.196C443.926,546.621 442.71,543.167 442.703,537.501C442.691,527.944 439.287,529.349 430.985,525.27C433.86,515.942 434.203,514.439 437.217,503.187C437.562,501.9 438.046,500.09 424.604,492.308C413.754,499.673 411.191,506.098 406.606,510.116C402.714,503.991 397.886,492.193 398.445,482.487C400.476,477.326 408.44,465.392 412.393,459.357C412.719,459.845 412.623,462.28 419.954,474.234C421.821,477.278 423.014,474.669 471.498,475.556C475.064,475.622 476.832,463.712 481.554,459.426C490.862,473.273 494.689,480.524 495.697,482.435C496.735,493.222 488.461,507.631 486.889,510.687C483.231,506.102 479.369,499.905 468.519,492.54C455.077,500.321 455.561,502.132 455.906,503.419C458.92,514.671 460.109,514.247 462.589,525.716C453.47,530.431 453.433,530.28 452.748,530.844C449.908,533.179 451.586,545.813 451.867,546.288C452.909,548.051 495.714,561.054 498.505,560.978C501.783,560.889 525.892,538.345 527.307,518.479C527.865,507.489 527.763,506.521 527.655,505.487C526.69,496.309 486.518,385.645 484.81,381.402C484.558,380.778 484.581,380.821 482.315,375.619C490.514,366.209 490.724,366.513 499.841,357.901C507.176,350.972 507.97,350.388 508.745,349.817C510.263,348.701 543.052,345.492 544.594,346.283C571.002,359.837 571.092,360.985 571.291,363.519C573.075,386.267 572.053,387.387 570.686,388.888C563.68,393.868 560.604,395.108 552.715,399.883C545.793,404.073 548.419,406.023 547.889,425.538C547.769,429.948 527.363,437.92 524.619,441.569C523.516,443.035 524.05,443.187 524.333,464.505C524.413,470.515 526.488,469.819 545.219,481.925C549.273,484.545 547.878,485.626 548.162,507.516C548.22,512.039 550.199,511.127 571.324,524.782C577.761,528.944 577.997,525.44 584.218,521.11C633.692,486.674 634.425,487.75 638.257,484.182C641.145,481.492 646.267,425.552 647.314,423.363C648.77,420.319 663.721,439.945 674.463,449.564C670.504,449.633 672.248,451.607 671.787,455.543C671.496,458.026 671.249,460.134 667.608,486.513C665.822,499.445 664.078,499.82 667.7,506.394L666.791,507.5C666.753,509.642 669.986,519.685 648.906,546.833C627.846,573.955 624.521,575.288 624.767,572.482C625.073,569.002 625.441,569.086 625.908,555.422C626.289,544.269 600.032,584.3 605.293,608.546C606.352,613.428 608.344,611.788 638.378,619.801C640.76,620.437 641.232,620.302 641.563,622.726C637.245,622.255 629.258,620.135 619.512,619.32C599.53,617.65 598.645,619.117 597.743,620.61C594.848,625.405 595.573,626.261 581.854,635.971C555.724,654.463 553.813,652.266 539.494,669.493C538.493,670.697 538.227,670.139 537.297,670.613C533.079,660.372 525.145,651.52 523.833,650.056C517.199,642.691 517.476,642.298 517.707,640.673C538.446,613.843 482.023,610.475 460.523,609.113C440.66,607.854 374.463,609.304 373.109,628.465C372.554,636.311 374.339,637.624 377.067,640.824C377.072,641.98 377.526,642.321 370.462,650.453C369.19,651.969 359.053,664.055 357.41,671.473L357.401,672.172C350.981,664.53 350.965,662.697 339.779,655.123C336.786,653.096 310.006,634.963 302.846,629.095C295.986,623.471 297.111,618.79 293.5,618.62C278.151,617.894 257.564,622.058 254.488,622.68C253.957,621.027 253.876,621.04 253.914,620.895C254.241,619.649 286.865,613.399 288.418,609.459C296.224,589.656 267.043,542.603 267.698,555.521C268.386,569.111 270.291,576.405 267.312,572.91C254.85,558.289 228.613,534.894 226.961,507.5L226.234,506.358ZM536.426,390.401C508.307,407.434 494.381,358.576 527.503,358.797C539.328,358.875 552.458,376.565 536.426,390.401ZM403.505,570.495C401.299,568.41 397.703,565.919 399.545,564.545C401.142,563.354 416.959,560.693 418.471,560.351C444.103,554.563 443.825,554.296 456.446,556.764C480.975,561.56 495.001,563.604 495.177,565.485C495.281,566.601 472.164,587.608 470.496,588.491C466.209,590.761 430.938,589.58 427.5,589.465C421.476,589.263 417.903,583.544 403.505,570.495ZM374.715,360.009C375.862,360.659 384.025,365.284 385.443,372.514C386.541,378.109 384.977,384.018 382.284,387.32C367.948,404.899 338.218,382.676 355.055,364.018C358.438,360.755 363.66,356.445 374.715,360.009Z" style="fill:rgb(128,63,28);"/>
    </g>
    <g transform="matrix(1,0,0,1,-92.381586,-122.533204)">
        <path d="M517.707,640.673C538.446,613.843 482.023,610.475 460.523,609.113C440.66,607.854 374.463,609.304 373.109,628.465C372.554,636.311 374.339,637.624 377.067,640.824C386.474,645.704 406.373,649.002 425.948,650.528C426.148,650.529 426.385,650.548 426.684,650.584C433.733,651.118 440.723,651.421 447.147,651.485C453.184,651.425 459.72,651.153 466.335,650.678C464.73,640.649 461.211,634.538 459.763,633.385C429.959,635.433 402.09,629.791 396.773,627.008C377.478,616.909 476.026,610.9 498.27,622.868C499.57,623.568 500.706,623.806 500.901,625.103C501.62,626.627 500.548,628.942 499.374,632.044C497.48,637.044 496.05,637.379 495.255,647.183C496.242,647.004 497.213,646.82 498.167,646.63C498.164,646.567 517.707,640.673 517.707,640.673Z" style="fill:rgb(230,185,77);"/>
    </g>
    <g transform="matrix(1,0,0,1,-92.381586,-122.533204)">
        <path d="M357.401,672.172L357.41,671.473C359.053,664.055 369.19,651.969 370.462,650.453C378.593,653.501 390.727,660.097 427.516,663.375C435.106,664.052 441.636,664.153 447.147,664.084C452.658,664.153 459.189,664.052 466.779,663.375L466.79,663.374C466.371,667.548 466.067,669.034 464.678,677.063C464.598,678.139 461.794,691.588 468.472,697.491C472.258,700.839 483.79,699.232 479.934,676.936C479.854,676.473 478.183,669.128 478.08,662.179C481.22,661.788 484.14,661.373 486.858,660.939C486.712,670.573 485.612,682.835 492.262,682.243C498.775,681.663 497.369,670.094 497.227,668.922C496.024,663.94 495.554,662.201 495.28,659.417C497.096,659.047 498.8,658.671 500.403,658.291C500.426,658.364 517.466,654.778 523.833,650.056C525.145,651.52 533.079,660.372 537.297,670.613C532.047,681.493 521.738,678.523 505.318,690.115C504.101,690.76 502.991,691.483 501.986,692.24C495.405,694.147 491.206,697.353 494.591,700.586C494.11,701.507 489.899,709.578 489.234,712.425C489.154,712.768 488.883,713.929 488.655,715.475C486.149,717.142 485.583,719.125 488.354,721.132C488.385,721.595 488.433,722.052 488.502,722.5C489.827,731.103 490.066,733.098 492.751,738.077C490.545,739.782 492.294,741.949 496.135,743.792L499.88,748.185C512.778,759.088 512.718,756.775 521.82,760.604C519.77,762.936 515.282,768.834 505.424,776.398C478.689,796.911 412.536,787.401 400.683,783.035C387.86,778.31 374.168,763.265 372.18,760.633C393.249,751.516 397.499,744.223 397.786,743.693L397.855,743.66C401.418,741.947 403.083,739.939 401.272,738.279C403.924,732.853 405.018,726.45 404.996,720.604C406.777,718.981 406.444,717.391 404.74,715.99C404.329,712.246 403.444,708.966 402.231,706.655C400.291,702.958 398.204,699.536 398.204,699.536C398.204,699.536 397.567,698.736 396.487,697.51C398.177,694.762 394.714,692.141 389.326,690.423C388.8,689.981 388.264,689.548 387.72,689.132C378.277,679.696 363.781,681.161 357.401,672.172Z" style="fill:rgb(230,185,77);"/>
    </g>
    <g transform="matrix(1,0,0,1,-92.381586,-122.533204)">
        <path d="M374.787,478.594C398.987,405.698 407.093,386.301 410.371,378.457L411.634,375.569C446.046,367.41 446.351,367.891 455.436,369.791C468.907,372.609 468.843,372.5 482.315,375.619C484.581,380.821 484.558,380.778 484.81,381.402C486.518,385.645 526.69,496.309 527.655,505.487C527.763,506.521 527.865,507.489 527.307,518.479C525.967,519.541 519.321,510.702 518.344,509.462C505.376,492.999 510.362,500.286 497.684,483.5L496.5,482.676L495.697,482.435C494.689,480.524 490.862,473.273 481.554,459.426C478.037,455.609 477.056,457.595 420.497,457.303C417.319,457.286 415.334,456.357 412.393,459.357C408.44,465.392 400.476,477.326 398.445,482.487L397.076,483.5C389.857,491.79 371.687,516.644 369.545,519.574C369.392,519.783 369.357,519.723 367.013,521.581C365.795,499.466 367.815,499.593 374.787,478.594Z" style="fill:rgb(230,185,77);"/>
    </g>
    <g transform="matrix(1,0,0,1,-92.381586,-122.533204)">
        <path d="M486.889,510.687C488.461,507.631 496.735,493.222 495.697,482.435L496.5,482.676L497.684,483.5C510.362,500.286 505.376,492.999 518.344,509.462C519.321,510.702 525.967,519.541 527.307,518.479C525.892,538.345 501.783,560.889 498.505,560.978C495.714,561.054 452.909,548.051 451.867,546.288C451.586,545.813 449.908,533.179 452.748,530.844C453.433,530.28 453.47,530.431 462.589,525.716C484.985,513.765 484.835,513.47 486.889,510.687Z" style="fill:rgb(197,140,63);"/>
    </g>
    <g transform="matrix(1,0,0,1,-92.381586,-121.533204)">
        <path d="M403.505,569.495C401.299,567.41 397.703,564.919 399.545,563.545C401.142,562.354 416.959,559.693 418.471,559.351C444.103,553.563 443.825,553.296 456.446,555.764C480.975,560.56 495.001,562.604 495.177,564.485C495.281,565.601 472.164,586.608 470.496,587.491C466.209,589.761 430.938,588.58 427.5,588.465C421.476,588.263 417.903,582.544 403.505,569.495Z" style="fill:rgb(197,140,63);"/>
    </g>
    <g transform="matrix(1,0,0,1,-92.381586,-122.533204)">
        <path d="M367.013,521.581C368.835,531.896 378.719,546.798 391.759,559.229C396.857,564.088 414.05,555.155 438.413,548.196C443.926,546.621 442.71,543.167 442.703,537.501C442.691,527.944 439.287,529.349 430.985,525.27C413.891,517.535 410.01,515.995 406.606,510.116C402.714,503.991 397.886,492.193 398.445,482.487L397.076,483.5C389.857,491.79 371.687,516.644 369.545,519.574C369.392,519.783 369.357,519.723 367.013,521.581Z" style="fill:rgb(197,140,63);"/>
    </g>
    <g transform="matrix(1,0,0,1,-92.381586,-122.533204)">
        <path d="M377.067,640.824C377.072,641.98 377.526,642.321 370.462,650.453C378.593,653.501 390.727,660.097 427.516,663.375C435.106,664.052 441.636,664.153 447.147,664.084C452.658,664.153 459.189,664.052 466.779,663.375C466.782,663.375 466.786,663.375 466.79,663.374C466.893,662.348 467.003,661.159 467.138,659.67C467.063,656.399 466.769,653.395 466.335,650.678C459.72,651.153 453.184,651.425 447.147,651.485C440.723,651.421 433.733,651.118 426.684,650.584C426.385,650.548 426.148,650.529 425.948,650.528C406.373,649.002 386.474,645.704 377.067,640.824Z" style="fill:rgb(47,47,47);"/>
    </g>
    <g transform="matrix(1,0,0,1,-92.381586,-122.533204)">
        <path d="M486.858,660.939C484.14,661.373 481.22,661.788 478.08,662.179C477.994,656.395 478.994,650.886 482.901,649.844C486.604,648.856 486.96,654.267 486.858,660.939Z" style="fill:rgb(47,47,47);"/>
    </g>
    <g transform="matrix(1,0,0,1,-92.381586,-122.533204)">
        <path d="M523.833,650.056C517.199,642.691 517.476,642.298 517.707,640.673C517.707,640.673 498.164,646.567 498.167,646.63C497.213,646.82 496.242,647.004 495.255,647.183C495.122,648.828 495.006,650.74 494.91,652.986C495.035,655.964 495.127,657.855 495.28,659.417C497.096,659.047 498.8,658.671 500.403,658.291C500.426,658.364 517.466,654.778 523.833,650.056Z" style="fill:rgb(47,47,47);"/>
    </g>
    <g transform="matrix(1,0,0,1,-92.381586,-122.533204)">
        <path d="M318.203,242.424C318.203,242.424 269.492,287.417 268.398,288.202C268.019,288.03 267.019,288.942 247.068,262.843C244.203,259.096 245.094,258.651 245.098,234.5C245.099,230.405 245.594,230.318 261.611,212.602C264.134,209.811 264.622,209.977 289.496,210.136C296.044,210.178 295.648,213.472 308.123,223.961C312.182,227.373 312.026,227.441 315.799,231.24C320.081,235.552 318.203,242.424 318.203,242.424Z" style="fill:rgb(47,47,47);"/>
    </g>
    <g transform="matrix(1,0,0,1,-92.381586,-122.533204)">
        <path d="M575.803,243.316C574.377,237.604 575.848,233.05 575.99,232.852C576.628,231.959 598.001,212.123 599.699,210.796C601.2,209.623 601.38,209.861 623.5,209.966C631.448,210.004 630.973,211.69 636.315,217.663C647.51,230.178 648.315,230.005 648.386,234.498C648.792,260.139 648.517,260.5 647.17,262.269C627.271,288.393 626.399,287.812 624.786,288.052C620.818,284.528 587.242,254.713 575.803,243.316Z" style="fill:rgb(47,47,47);"/>
    </g>
    <g transform="matrix(1,0,0,1,-92.381586,-122.533204)">
        <path d="M536.426,390.401C508.307,407.434 494.381,358.576 527.503,358.797C539.328,358.875 552.458,376.565 536.426,390.401ZM526.148,363.985C532.929,373.081 515.497,374.103 517.923,366.631C517.972,366.479 517.994,366.501 518.889,364.879C521.755,362.788 522.695,362.323 526.148,363.985Z" style="fill:rgb(47,47,47);"/>
    </g>
    <g transform="matrix(1,0,0,1,-92.381586,-122.533204)">
        <path d="M374.715,360.009C375.862,360.659 384.025,365.284 385.443,372.514C386.541,378.109 384.977,384.018 382.284,387.32C367.948,404.899 338.218,382.676 355.055,364.018C358.438,360.755 363.66,356.445 374.715,360.009ZM369.459,363.318C370.125,363.297 377.197,363.07 375.906,368.583C373.974,376.836 359.803,367.331 369.459,363.318Z" style="fill:rgb(47,47,47);"/>
    </g>
    <g transform="matrix(1,0,0,1,-92.381586,-122.533204)">
        <path d="M462.589,525.716C460.109,514.247 458.92,514.671 455.906,503.419C455.561,502.132 455.077,500.321 468.519,492.54C479.369,499.905 483.231,506.102 486.889,510.687C484.835,513.47 484.985,513.765 462.589,525.716Z" style="fill:rgb(47,47,47);"/>
    </g>
    <g transform="matrix(-1,0,0,1,800.741403,-122.765047)">
        <path d="M462.138,525.502C479.232,517.767 483.113,516.227 486.517,510.348C481.932,506.329 479.369,499.905 468.519,492.54C455.077,500.321 455.561,502.132 455.906,503.419C458.92,514.671 459.263,516.174 462.138,525.502Z" style="fill:rgb(47,47,47);"/>
    </g>
    <g transform="matrix(1,0,0,1,-92.381586,-120.533204)">
        <path d="M466.335,648.678C464.73,638.649 461.211,632.538 459.763,631.385C429.959,633.433 402.09,627.791 396.773,625.008C377.478,614.909 476.026,608.9 498.27,620.868C499.57,621.568 500.706,621.806 500.901,623.103C501.62,624.627 500.548,626.942 499.374,630.044C497.48,635.044 496.05,635.379 495.255,645.183C495.122,646.828 495.006,648.74 494.91,650.986C495.035,653.964 495.127,655.855 495.28,657.417C495.554,660.201 496.024,661.94 497.227,666.922C497.369,668.094 498.775,679.663 492.262,680.243C485.612,680.835 486.712,668.573 486.858,658.939C486.96,652.267 486.604,646.856 482.901,647.844C478.994,648.886 477.994,654.395 478.08,660.179C478.183,667.128 479.854,674.473 479.934,674.936C483.79,697.232 472.258,698.839 468.472,695.491C461.794,689.588 464.598,676.139 464.678,675.063C466.067,667.034 466.371,665.548 466.79,661.374C466.893,660.348 467.003,659.159 467.138,657.67C467.063,654.399 466.769,651.395 466.335,648.678Z" style="fill:rgb(245,236,210);"/>
    </g>
    <g transform="matrix(-0.99993,0.011807,-0.011807,-0.99993,809.891748,1335.681283)">
        <path d="M496.016,720.428C502.25,717.548 514.115,715.63 523.431,717.899C528.132,719.043 530.596,720.58 531.32,722.186C533.933,727.98 513.91,734.688 494.602,727.239C493.807,726.933 493.383,726.516 492.817,726.093C492.688,725.997 492.571,725.9 492.466,725.801C490.675,724.119 492.363,722.131 495.946,720.46L496.016,720.428Z" style="fill:rgb(47,47,47);"/>
    </g>
    <g transform="matrix(1,0,0,1.088465,-88.092732,-192.290843)">
        <path d="M400.707,726.126C400.337,726.436 399.875,726.747 399.314,727.059C399.046,727.208 398.753,727.312 398.485,727.462C370.608,736.697 352.169,723.677 368.554,718.713C378.277,715.767 395.395,718.065 400.451,721.886C402.155,723.174 402.488,724.634 400.707,726.126Z" style="fill:rgb(47,47,47);"/>
    </g>
    <g transform="matrix(0.925424,0.008192,-0.009895,1.117908,-60.221792,-239.196046)">
        <path d="M401.443,725.359C401.034,725.92 400.338,726.489 399.314,727.059C399.046,727.208 398.753,727.312 398.485,727.462C370.608,736.697 352.169,723.677 368.554,718.713C375.505,716.607 386.236,717.181 393.637,719.076C399.476,720.571 403.242,722.887 401.443,725.359Z" style="fill:rgb(47,47,47);"/>
    </g>
    <g transform="matrix(0.99973,0.023246,0.023246,-0.99973,-109.048023,1329.878378)">
        <path d="M492.675,725.983C492.721,726.02 492.768,726.057 492.817,726.093C493.383,726.516 494.035,726.816 494.602,727.239C513.655,734.589 533.403,728.155 531.412,722.417C530.826,720.727 528.356,719.098 523.431,717.899C514.201,715.651 502.47,717.513 496.191,720.348C492.307,722.101 490.509,724.227 492.675,725.983Z" style="fill:rgb(47,47,47);"/>
    </g>
    <g transform="matrix(-1,0,0,1.088465,796.026187,-192.290843)">
        <path d="M399.752,721.413C393.972,717.882 377.869,715.891 368.554,718.713C352.169,723.677 370.608,736.697 398.485,727.462C398.753,727.312 399.046,727.208 399.314,727.059C399.583,726.909 399.829,726.76 400.053,726.611C402.824,724.766 402.259,722.945 399.752,721.413Z" style="fill:rgb(47,47,47);"/>
    </g>
    <g transform="matrix(-0.925386,0.011754,0.014199,1.117862,762.637667,-238.434306)">
        <path d="M392.527,718.807C385.195,717.131 375.165,716.71 368.554,718.713C352.169,723.677 370.608,736.697 398.485,727.462C398.753,727.312 399.046,727.208 399.314,727.059C399.837,726.768 400.275,726.477 400.632,726.188C404.245,723.258 399.664,720.438 392.527,718.807Z" style="fill:rgb(47,47,47);"/>
    </g>
    <g transform="matrix(1,0,0,1,-92.381586,-122.533204)">
        <path d="M526.148,363.985C532.929,373.081 515.497,374.103 517.923,366.631C517.972,366.479 517.994,366.501 518.889,364.879C521.755,362.788 522.695,362.323 526.148,363.985Z" style="fill:rgb(245,236,210);"/>
    </g>
    <g transform="matrix(1,0,0,1,-92.381586,-122.533204)">
        <path d="M369.459,363.318C370.125,363.297 377.197,363.07 375.906,368.583C373.974,376.836 359.803,367.331 369.459,363.318Z" style="fill:rgb(245,236,210);"/>
    </g>
</svg>
